# Blender 4.4.3
# www.blender.org
mtllib arrow.mtl
o Object_4
v 2.259969 0.000000 1.316777
v 2.259969 0.000000 1.316777
v 2.259969 0.000000 1.316777
v -0.003840 0.344695 0.049686
v -0.003840 0.344695 0.049686
v -0.003840 0.344695 0.049686
v -0.003840 -0.344695 0.049686
v -0.003840 -0.344695 0.049686
v -0.003840 -0.344695 0.049686
v 0.003915 0.000000 -3.255030
v 0.003915 0.000000 -3.255030
v -2.250715 0.000000 1.458629
v -2.250715 0.000000 1.458629
v -2.250715 0.000000 1.458629
vn -0.0033 0.9946 -0.1037
vn 0.5313 -0.0000 0.8472
vn -0.0033 -0.9946 -0.1037
vn -0.4884 -0.0000 0.8726
vt 0.625000 0.500000
vt 0.875000 0.500000
vt 0.625000 0.750000
vt 0.875000 0.750000
vt 0.375000 0.750000
vt 0.375000 1.000000
vt 0.125000 0.500000
vt 0.375000 0.500000
vt 0.125000 0.750000
s 1
usemtl Material.001
f 3/1/1 11/2/1 5/3/1
f 11/2/1 14/4/1 5/3/1
s 0
f 9/5/2 6/3/2 13/6/2
s 1
f 10/7/3 1/8/3 8/5/3
f 10/7/3 8/5/3 12/9/3
s 0
f 2/1/4 4/3/4 7/5/4
